<svg xmlns="http://www.w3.org/2000/svg" width="56" height="56" viewBox="0 0 64 64" fill="none">
  <rect width="64" height="64" rx="12" fill="#E8FBF9"/>
  <path d="M16 36v6a2 2 0 0 0 2 2h3a2 2 0 0 0 2-2v-2h18v2a2 2 0 0 0 2 2h3a2 2 0 0 0 2-2v-6" stroke="#1FA99C" stroke-width="2.2" stroke-linecap="round" stroke-linejoin="round"/>
  <path d="M16 36l3-10a4 4 0 0 1 3.8-2.8h18.4A4 4 0 0 1 45 26l3 10" stroke="#1FA99C" stroke-width="2.2" stroke-linecap="round" stroke-linejoin="round"/>
  <path d="M16 36h32" stroke="#1FA99C" stroke-width="2.2" stroke-linecap="round"/>
  <circle cx="22" cy="36" r="2" fill="#1FA99C"/>
  <circle cx="42" cy="36" r="2" fill="#1FA99C"/>
</svg>
